<?xml version="1.0" encoding="UTF-8" standalone="no"?>
<svg
   xmlns:dc="http://purl.org/dc/elements/1.1/"
   xmlns:cc="http://creativecommons.org/ns#"
   xmlns:rdf="http://www.w3.org/1999/02/22-rdf-syntax-ns#"
   xmlns:svg="http://www.w3.org/2000/svg"
   xmlns="http://www.w3.org/2000/svg"
   xmlns:sodipodi="http://sodipodi.sourceforge.net/DTD/sodipodi-0.dtd"
   xmlns:inkscape="http://www.inkscape.org/namespaces/inkscape"
   sodipodi:docname="logo.svg"
   inkscape:version="1.0 (4035a4fb49, 2020-05-01)"
   id="svg8"
   version="1.1"
   viewBox="0 0 200 200"
   height="200mm"
   width="200mm"
   inkscape:export-filename="D:\ChowDSP\Plugins\BYOD\res\logo.png"
   inkscape:export-xdpi="96"
   inkscape:export-ydpi="96">
  <defs
     id="defs2">
    <rect
       x="30.238095"
       y="46.869048"
       width="133.80357"
       height="34.773806"
       id="rect837" />
    <filter
       height="1.0192693"
       y="-0.0096346659"
       width="1.0127694"
       x="-0.0063846851"
       id="filter853"
       style="color-interpolation-filters:sRGB"
       inkscape:collect="always">
      <feGaussianBlur
         id="feGaussianBlur855"
         stdDeviation="0.39593942"
         inkscape:collect="always" />
    </filter>
  </defs>
  <sodipodi:namedview
     id="base"
     pagecolor="#ffffff"
     bordercolor="#666666"
     borderopacity="1.0"
     inkscape:pageopacity="0.0"
     inkscape:pageshadow="2"
     inkscape:zoom="0.7"
     inkscape:cx="370.83035"
     inkscape:cy="334.13456"
     inkscape:document-units="mm"
     inkscape:current-layer="layer1"
     inkscape:document-rotation="0"
     showgrid="false"
     inkscape:window-width="960"
     inkscape:window-height="1001"
     inkscape:window-x="951"
     inkscape:window-y="-9"
     inkscape:window-maximized="0" />
  <metadata
     id="metadata5">
    <rdf:RDF>
      <cc:Work
         rdf:about="">
        <dc:format>image/svg+xml</dc:format>
        <dc:type
           rdf:resource="http://purl.org/dc/dcmitype/StillImage" />
        <dc:title />
      </cc:Work>
    </rdf:RDF>
  </metadata>
  <g
     inkscape:label="Layer 1"
     inkscape:groupmode="layer"
     id="layer1">
    <circle
       style="fill:#2a2a2a;stroke-width:0.264583;fill-opacity:1"
       id="path833"
       cx="100"
       cy="100"
       r="100" />
    <circle
       style="fill:#000000;fill-opacity:0.22745098;stroke-width:0.31065"
       id="path862"
       cx="100"
       cy="100"
       r="75" />
    <path
       transform="rotate(3.5,100.07436,100.0033)"
       id="path1219"
       title="0.6*sin(1*x)"
       d="m 25.657646,100.00293 c 2.611155,-5.436071 5.22231,-10.870818 7.833365,-16.012599 2.611155,-5.141788 5.22221,-9.986996 7.833366,-14.277336 2.611054,-4.29046 5.222209,-8.020981 7.833263,-10.995006 2.611156,-2.974026 5.222211,-5.185761 7.833366,-6.52116 2.611055,-1.33528 5.22221,-1.788548 7.833265,-1.340596 2.611155,0.448073 5.222209,1.80244 7.833365,3.98518 2.611156,2.182862 5.22221,5.198084 7.833366,8.879193 2.611054,3.68111 5.22221,8.030523 7.833264,12.810977 2.611156,4.780454 5.22221,9.992547 7.833164,15.354328 2.610963,5.361775 5.22191,10.871779 7.83387,16.234399 2.61095,5.36142 5.22191,10.57304 7.83286,15.35458 2.61096,4.78034 5.22191,9.12818 7.83387,12.81038 2.61095,3.68219 5.22191,6.69511 7.83287,8.8793 2.61095,2.18418 5.2219,3.53481 7.83286,3.98542 2.61195,0.44941 5.2229,-0.007 7.83387,-1.34096 2.61095,-1.3337 5.2219,-3.5481 7.83285,-6.52114 2.61197,-2.97186 5.22291,-6.706 7.83387,-10.99465 2.61096,-4.28987 5.22191,-9.13664 7.83286,-14.27818 2.61097,-5.14034 5.22293,-10.57545 7.83387,-16.01213"
       style="opacity:1;fill:#000000;fill-opacity:0;stroke:#d0592c;stroke-width:1.2;stroke-miterlimit:4;stroke-dasharray:none;stroke-opacity:1;filter:url(#filter853)" />
  </g>
  <g
     inkscape:groupmode="layer"
     id="layer2"
     inkscape:label="Layer 2"
     style="display:inline">
    <g
       aria-label="chowdsp"
       transform="matrix(1.4539557,0,0,1.4749376,-35.551978,7.1553475)"
       id="text835"
       style="font-style:normal;font-variant:normal;font-weight:bold;font-stretch:normal;font-size:25.4px;line-height:1.25;font-family:sans-serif;-inkscape-font-specification:'sans-serif, Bold';font-variant-ligatures:normal;font-variant-caps:normal;font-variant-numeric:normal;font-variant-east-asian:normal;letter-spacing:0px;word-spacing:0px;white-space:pre;shape-inside:url(#rect837);fill:#ffffff;fill-opacity:1">
      <path
         d="m 39.602051,70.414401 q -1.823145,0 -3.336231,-0.434082 -1.500683,-0.434082 -2.616894,-1.339454 -1.103809,-0.905371 -1.711524,-2.282031 -0.607715,-1.37666 -0.607715,-3.224609 0,-1.947168 0.644922,-3.361035 0.657325,-1.413867 1.823145,-2.344043 1.128613,-0.880566 2.604492,-1.289844 1.475879,-0.409277 3.063379,-0.409277 1.426269,0 2.629297,0.310058 1.203027,0.310059 2.244824,0.806153 v 3.807519 h -0.63252 q -0.260449,-0.223242 -0.632519,-0.520898 -0.359668,-0.297656 -0.892969,-0.58291 -0.508496,-0.272852 -1.116211,-0.446485 -0.607715,-0.186035 -1.413867,-0.186035 -1.785937,0 -2.75332,1.141016 -0.954981,1.128613 -0.954981,3.075781 0,2.00918 0.979785,3.050976 0.992188,1.041797 2.80293,1.041797 0.843359,0 1.513086,-0.186035 0.682129,-0.198437 1.128613,-0.458887 0.42168,-0.248046 0.744141,-0.520898 0.322461,-0.272852 0.595312,-0.533301 h 0.63252 v 3.80752 q -1.054199,0.496093 -2.207617,0.781347 -1.141016,0.297657 -2.530078,0.297657 z"
         id="path847" />
      <path
         d="m 61.268945,70.04233 h -4.489648 v -6.908105 q 0,-0.843359 -0.08682,-1.674316 -0.08682,-0.84336 -0.297656,-1.240235 -0.248047,-0.458886 -0.731738,-0.669726 -0.471289,-0.21084 -1.327051,-0.21084 -0.607715,0 -1.240235,0.198437 -0.620117,0.198438 -1.351855,0.63252 V 70.04233 H 47.279101 V 50.744284 h 4.464844 v 6.908105 q 1.190625,-0.930176 2.282031,-1.426269 1.103809,-0.496094 2.443262,-0.496094 2.257226,0 3.522265,1.314648 1.277442,1.314649 1.277442,3.931543 z"
         id="path849" />
      <path
         d="m 79.624415,63.084616 q 0,3.435449 -2.00918,5.419824 -1.996777,1.971972 -5.618262,1.971972 -3.621484,0 -5.630664,-1.971972 -1.996777,-1.984375 -1.996777,-5.419824 0,-3.460254 2.00918,-5.432227 2.021582,-1.971973 5.618261,-1.971973 3.646289,0 5.630664,1.984375 1.996778,1.984375 1.996778,5.419825 z m -5.494239,3.385839 q 0.434082,-0.5333 0.644922,-1.277441 0.223242,-0.756543 0.223242,-2.083594 0,-1.227832 -0.223242,-2.058789 -0.223242,-0.830957 -0.620117,-1.327051 -0.396875,-0.508496 -0.95498,-0.719335 -0.558106,-0.21084 -1.203028,-0.21084 -0.644922,0 -1.153418,0.173633 -0.496093,0.173632 -0.95498,0.694531 -0.409277,0.483691 -0.657324,1.327051 -0.235645,0.843359 -0.235645,2.1208 0,1.141016 0.21084,1.984375 0.21084,0.830957 0.620117,1.339453 0.396875,0.483692 0.942578,0.706934 0.558106,0.223242 1.265039,0.223242 0.607715,0 1.153418,-0.198437 0.558106,-0.21084 0.942578,-0.694532 z"
         id="path851" />
      <path
         d="M 105.06162,56.114499 100.7456,70.04233 H 96.007908 L 93.167772,60.653756 90.377244,70.04233 H 85.577537 L 81.298729,56.114499 h 4.688086 l 2.38125,9.599413 2.976562,-9.599413 h 3.956348 l 2.827734,9.599413 2.344041,-9.599413 z"
         id="path853" />
      <path
         d="m 121.29629,70.04233 h -4.46484 v -1.451074 q -1.15342,0.942578 -2.15801,1.389063 -1.00459,0.446484 -2.31924,0.446484 -2.54248,0 -4.06797,-1.95957 -1.52549,-1.959571 -1.52549,-5.283399 0,-1.773535 0.5085,-3.137793 0.5209,-1.37666 1.41387,-2.356445 0.84335,-0.930176 2.04638,-1.438672 1.20303,-0.520898 2.40606,-0.520898 1.25263,0 2.04638,0.272851 0.80616,0.26045 1.64952,0.669727 v -5.92832 h 4.46484 z m -4.46484,-3.844726 v -6.833691 q -0.47129,-0.198438 -0.99219,-0.285254 -0.5209,-0.08682 -0.95498,-0.08682 -1.76114,0 -2.6417,1.103809 -0.88057,1.091406 -0.88057,3.038574 0,2.046387 0.70694,2.976562 0.70693,0.917774 2.26962,0.917774 0.60772,0 1.28985,-0.223242 0.68213,-0.235645 1.20303,-0.607715 z"
         id="path855" />
      <path
         d="m 137.61777,65.627096 q 0,2.158008 -1.93476,3.485059 -1.93477,1.314648 -5.2958,1.314648 -1.86036,0 -3.37344,-0.347266 -1.51309,-0.347265 -2.43086,-0.768945 v -3.671094 h 0.40928 q 0.33486,0.235645 0.76894,0.520899 0.44649,0.272851 1.25264,0.595312 0.69453,0.285254 1.5751,0.496094 0.88056,0.198438 1.88515,0.198438 1.31465,0 1.94717,-0.285254 0.63252,-0.297657 0.63252,-0.868164 0,-0.508497 -0.37207,-0.731739 -0.37207,-0.235644 -1.41387,-0.446484 -0.49609,-0.111621 -1.35185,-0.235645 -0.84336,-0.136425 -1.53789,-0.322461 -1.89756,-0.496093 -2.81534,-1.53789 -0.91777,-1.054199 -0.91777,-2.616895 0,-2.009179 1.89756,-3.33623 1.90996,-1.339453 5.20898,-1.339453 1.5627,0 2.98897,0.322461 1.43867,0.310058 2.24482,0.669726 v 3.522266 h -0.38447 q -0.99219,-0.682129 -2.26963,-1.103809 -1.26504,-0.434082 -2.56728,-0.434082 -1.07901,0 -1.82315,0.297657 -0.73174,0.297656 -0.73174,0.843359 0,0.496094 0.33487,0.756543 0.33486,0.260449 1.57509,0.520898 0.68213,0.136426 1.46348,0.272852 0.79375,0.124023 1.5875,0.322461 1.76113,0.458887 2.60449,1.451074 0.84336,0.979785 0.84336,2.455664 z"
         id="path857" />
      <path
         d="m 155.12988,62.886178 q 0,1.723926 -0.5333,3.137793 -0.5209,1.413867 -1.37666,2.331641 -0.89297,0.967382 -2.02158,1.463476 -1.12861,0.496094 -2.41846,0.496094 -1.19062,0 -2.02158,-0.260449 -0.83095,-0.248047 -1.69912,-0.706934 v 5.804297 h -4.46484 V 56.114499 h 4.46484 v 1.451074 q 1.0294,-0.818555 2.096,-1.327051 1.079,-0.508496 2.48047,-0.508496 2.60449,0 4.04316,1.909961 1.45107,1.909961 1.45107,5.246191 z m -4.60127,0.08682 q 0,-2.033984 -0.69453,-2.951757 -0.69453,-0.917774 -2.19521,-0.917774 -0.63252,0 -1.30225,0.198438 -0.66972,0.186035 -1.27744,0.545703 v 7.007324 q 0.44649,0.173633 0.95498,0.223242 0.5085,0.04961 1.00459,0.04961 1.77354,0 2.6417,-1.029395 0.86816,-1.041797 0.86816,-3.125391 z"
         id="path859" />
    </g>
  </g>
</svg>
